<svg width="1440" height="734" xmlns="http://www.w3.org/2000/svg"><g><path d="M-149,-283L-294,235L65,-224Z" fill="#fffffc" stroke="#fffffc"/><path d="M-149,-283L65,-224L364,-325Z" fill="#fafde1" stroke="#fafde1"/><path d="M65,-224L-294,235L186,272Z" fill="#feffd9" stroke="#feffd9"/><path d="M65,-224L186,272L364,-325Z" fill="#f1fad9" stroke="#f1fad9"/><path d="M364,-325L186,272L532,223Z" fill="#daf1cb" stroke="#daf1cb"/><path d="M364,-325L532,223L839,162Z" fill="#acdfdb" stroke="#acdfdb"/><path d="M364,-325L839,162L904,-319Z" fill="#99d4e1" stroke="#99d4e1"/><path d="M904,-319L839,162L1199,-13Z" fill="#91acd2" stroke="#91acd2"/><path d="M904,-319L1199,-13L1443,-231Z" fill="#8d95be" stroke="#8d95be"/><path d="M904,-319L1443,-231L1906,-185Z" fill="#808492" stroke="#808492"/><path d="M1199,-13L839,162L1175,153Z" fill="#90a0b7" stroke="#90a0b7"/><path d="M1199,-13L1175,153L1557,232Z" fill="#7d8c91" stroke="#7d8c91"/><path d="M1199,-13L1557,232L1443,-231Z" fill="#808695" stroke="#808695"/><path d="M1443,-231L1557,232L1807,42Z" fill="#80807c" stroke="#80807c"/><path d="M1443,-231L1807,42L1906,-185Z" fill="#808080" stroke="#808080"/><path d="M1906,-185L1807,42L1887,412Z" fill="#7f806a" stroke="#7f806a"/><path d="M-294,235L-295,611L24,600Z" fill="#94bae5" stroke="#94bae5"/><path d="M-294,235L24,600L186,272Z" fill="#9be1e4" stroke="#9be1e4"/><path d="M186,272L24,600L170,735Z" fill="#8ea7ba" stroke="#8ea7ba"/><path d="M186,272L170,735L532,427Z" fill="#7ab2c0" stroke="#7ab2c0"/><path d="M186,272L532,427L532,223Z" fill="#7ddcd0" stroke="#7ddcd0"/><path d="M532,223L532,427L839,162Z" fill="#61d2d4" stroke="#61d2d4"/><path d="M839,162L532,427L839,622Z" fill="#28a8d4" stroke="#28a8d4"/><path d="M839,162L839,622L1114,454Z" fill="#2288c8" stroke="#2288c8"/><path d="M839,162L1114,454L1175,153Z" fill="#589dc0" stroke="#589dc0"/><path d="M1175,153L1114,454L1550,432Z" fill="#2676a1" stroke="#2676a1"/><path d="M1175,153L1550,432L1557,232Z" fill="#3f7a82" stroke="#3f7a82"/><path d="M1557,232L1550,432L1887,412Z" fill="#1e6474" stroke="#1e6474"/><path d="M1557,232L1887,412L1807,42Z" fill="#547c6f" stroke="#547c6f"/><path d="M-295,611L-14,1093L-89,884Z" fill="#86807d" stroke="#86807d"/><path d="M-295,611L-89,884L24,600Z" fill="#8f8a9c" stroke="#8f8a9c"/><path d="M24,600L-89,884L170,735Z" fill="#8a8277" stroke="#8a8277"/><path d="M532,427L170,735L353,818Z" fill="#6e828c" stroke="#6e828c"/><path d="M532,427L353,818L737,808Z" fill="#436e86" stroke="#436e86"/><path d="M532,427L737,808L839,622Z" fill="#2d6ba4" stroke="#2d6ba4"/><path d="M839,622L737,808L1168,858Z" fill="#1c365c" stroke="#1c365c"/><path d="M839,622L1168,858L1114,454Z" fill="#243887" stroke="#243887"/><path d="M1114,454L1168,858L1403,723Z" fill="#191f5f" stroke="#191f5f"/><path d="M1114,454L1403,723L1550,432Z" fill="#15337b" stroke="#15337b"/><path d="M1550,432L1403,723L1721,904Z" fill="#100c26" stroke="#100c26"/><path d="M1550,432L1721,904L1887,412Z" fill="#161d53" stroke="#161d53"/><path d="M1887,412L1721,904L1796,1229Z" fill="#070000" stroke="#070000"/><path d="M-89,884L-14,1093L170,735Z" fill="#827f6a" stroke="#827f6a"/><path d="M170,735L-14,1093L353,818Z" fill="#7b7c59" stroke="#7b7c59"/><path d="M353,818L-14,1093L62,1203Z" fill="#787d5c" stroke="#787d5c"/><path d="M353,818L62,1203L457,1050Z" fill="#67765a" stroke="#67765a"/><path d="M353,818L457,1050L737,808Z" fill="#3d645f" stroke="#3d645f"/><path d="M737,808L457,1050L822,1165Z" fill="#1d5862" stroke="#1d5862"/><path d="M737,808L822,1165L1168,858Z" fill="#123758" stroke="#123758"/><path d="M1168,858L822,1165L1032,1255Z" fill="#122951" stroke="#122951"/><path d="M1168,858L1032,1255L1426,1310Z" fill="#0b143a" stroke="#0b143a"/><path d="M1168,858L1426,1310L1403,723Z" fill="#010b22" stroke="#010b22"/><path d="M1403,723L1426,1310L1721,904Z" fill="#000000" stroke="#000000"/><path d="M1721,904L1426,1310L1796,1229Z" fill="#000000" stroke="#000000"/><path d="M62,1203L1426,1310L1032,1255Z" fill="#0f425d" stroke="#0f425d"/><path d="M62,1203L1032,1255L822,1165Z" fill="#215b62" stroke="#215b62"/><path d="M62,1203L822,1165L457,1050Z" fill="#476a5d" stroke="#476a5d"/></g></svg>
